<?xml version="1.0" standalone="no"?>
<!DOCTYPE svg PUBLIC "-//W3C//DTD SVG 20010904//EN"
 "http://www.w3.org/TR/2001/REC-SVG-20010904/DTD/svg10.dtd">
<svg version="1.0" xmlns="http://www.w3.org/2000/svg"
 width="1280.000000pt" height="1137.000000pt" viewBox="0 0 1280.000000 1137.000000"
 preserveAspectRatio="xMidYMid meet">
<metadata>
Created by potrace 1.15, written by Peter Selinger 2001-2017
</metadata>
<g transform="translate(0.000000,1137.000000) scale(0.100000,-0.100000)"
fill="#000000" stroke="none">
<path d="M9940 10609 c-761 -30 -1531 -243 -2095 -581 -375 -224 -615 -407
-830 -629 -300 -312 -446 -646 -462 -1059 -7 -182 6 -315 47 -475 45 -180 122
-340 231 -482 23 -29 40 -55 38 -57 -6 -6 -295 -72 -464 -106 -678 -138 -1298
-199 -1895 -187 -530 11 -898 64 -1256 182 -622 204 -988 561 -1070 1041 -21
124 -15 449 11 564 96 430 371 755 825 974 270 130 523 198 907 242 181 22
730 25 953 6 546 -46 1078 -136 1635 -277 l179 -45 79 26 c56 19 81 32 87 48
13 30 40 153 40 182 0 27 -51 134 -72 151 -15 13 -280 85 -523 142 -1171 274
-2195 340 -3063 195 -1069 -177 -1875 -720 -2102 -1414 -125 -382 -98 -817 72
-1178 79 -166 241 -382 379 -503 513 -449 1222 -703 2219 -794 235 -22 806
-30 1080 -16 709 37 1472 158 2246 355 l130 33 75 -45 c197 -117 488 -241 724
-308 l100 -28 -85 -19 c-1418 -312 -2534 -853 -3265 -1582 -521 -520 -785
-1098 -785 -1720 1 -650 267 -1150 825 -1551 441 -317 1019 -502 1733 -555
208 -15 694 -7 892 16 894 100 1727 412 2422 908 704 503 1031 1018 1005 1582
-13 280 -121 520 -328 725 -339 337 -849 493 -1439 440 -656 -59 -1382 -354
-2175 -883 -262 -175 -642 -455 -659 -485 -18 -31 -35 -144 -25 -169 5 -12 30
-52 56 -87 52 -71 75 -84 163 -92 l55 -5 135 97 c901 646 1603 954 2175 954
508 0 861 -209 977 -580 20 -66 23 -94 22 -235 0 -176 -16 -265 -72 -401 -140
-344 -478 -667 -947 -906 -415 -211 -812 -311 -1347 -340 -355 -19 -718 11
-999 82 -403 102 -741 309 -945 579 -79 104 -174 293 -209 415 -33 116 -55
289 -55 432 0 724 378 1378 1135 1964 750 580 1784 985 2975 1165 176 27 221
41 288 91 l32 25 0 115 0 116 -47 59 c-25 33 -56 62 -67 64 -12 3 -93 20 -181
39 -384 83 -635 168 -895 302 -124 65 -179 99 -170 107 3 2 115 41 250 87 523
177 1027 381 1430 581 762 376 1223 743 1462 1159 107 186 161 441 138 643
-64 559 -565 887 -1390 910 -69 2 -208 0 -310 -4z m310 -508 c321 -95 495
-336 476 -661 -7 -125 -28 -204 -85 -325 -157 -329 -513 -626 -1111 -924 -357
-178 -715 -321 -1249 -497 l-324 -108 -38 45 c-82 96 -156 247 -185 378 -22
98 -29 318 -15 440 15 128 49 262 96 378 257 637 1023 1192 1770 1282 50 6
101 13 115 15 14 2 126 3 250 2 197 -3 234 -6 300 -25z"/>
</g>
</svg>
