<?xml version="1.0" encoding="utf-8"?>
<!-- Generator: Adobe Illustrator 21.0.0, SVG Export Plug-In . SVG Version: 6.00 Build 0)  -->
<svg version="1.1" id="Layer_1" xmlns="http://www.w3.org/2000/svg" xmlns:xlink="http://www.w3.org/1999/xlink" x="0px" y="0px"
	 viewBox="0 0 100 100" style="enable-background:new 0 0 100 100;" xml:space="preserve">
<path d="M2.9,51.6h87.6l-7.7,7.6c-1,1-1,2.6,0,3.5l0,0c1,1,2.6,1,3.5,0l12.9-13c0.4-0.4,0.4-1,0-1.4l-12.9-13c-1-1-2.6-1-3.5,0l0,0
	c-1,1-1,2.6,0,3.5l7.7,7.6H2.9c-1.4,0-2.5,1.1-2.5,2.5l0,0C0.4,50.5,1.5,51.6,2.9,51.6z"/>
</svg>
